<?xml version="1.0" encoding="UTF-8"?>
<svg id="Calque_1" data-name="Calque 1" xmlns="http://www.w3.org/2000/svg" viewBox="0 0 1080.01 1080.01">
  <defs>
    <style>
      .cls-1 {
        fill: #bf3131;
      }

      .cls-2 {
        fill: #f3edc8;
      }
    </style>
  </defs>
  <rect class="cls-2" x="54.8" y="527.3" width="25.4" height="25.4" transform="translate(-362.07 205.9) rotate(-45)"/>
  <rect class="cls-2" x="54.8" y="662.3" width="25.4" height="25.4" transform="translate(-457.53 245.44) rotate(-45)"/>
  <rect class="cls-2" x="54.81" y="797.3" width="25.4" height="25.4" transform="translate(-552.98 284.98) rotate(-45)"/>
  <rect class="cls-2" x="54.81" y="932.3" width="25.4" height="25.4" transform="translate(-648.44 324.52) rotate(-45)"/>
  <rect class="cls-2" x="54.8" y="392.3" width="25.4" height="25.4" transform="translate(-266.61 166.35) rotate(-45)"/>
  <rect class="cls-2" x="54.8" y="257.3" width="25.4" height="25.4" transform="translate(-171.15 126.81) rotate(-45)"/>
  <rect class="cls-2" x="54.8" y="122.3" width="25.4" height="25.4" transform="translate(-75.69 87.27) rotate(-45)"/>
  <rect class="cls-2" x="189.8" y="527.3" width="25.4" height="25.4" transform="translate(-322.53 301.35) rotate(-45)"/>
  <rect class="cls-2" x="189.8" y="662.3" width="25.4" height="25.4" transform="translate(-417.99 340.89) rotate(-45)"/>
  <rect class="cls-2" x="189.8" y="797.3" width="25.4" height="25.4" transform="translate(-513.44 380.44) rotate(-45)"/>
  <rect class="cls-2" x="189.81" y="932.3" width="25.4" height="25.4" transform="translate(-608.9 419.98) rotate(-45)"/>
  <rect class="cls-2" x="189.8" y="392.3" width="25.4" height="25.4" transform="translate(-227.07 261.81) rotate(-45)"/>
  <rect class="cls-2" x="189.8" y="257.3" width="25.4" height="25.4" transform="translate(-131.61 222.27) rotate(-45)"/>
  <rect class="cls-2" x="189.8" y="122.3" width="25.4" height="25.4" transform="translate(-36.15 182.73) rotate(-45)"/>
  <rect class="cls-2" x="324.8" y="527.3" width="25.4" height="25.4" transform="translate(-282.99 396.81) rotate(-45)"/>
  <rect class="cls-2" x="324.8" y="662.3" width="25.4" height="25.4" transform="translate(-378.44 436.35) rotate(-45)"/>
  <rect class="cls-2" x="324.8" y="797.3" width="25.4" height="25.4" transform="translate(-473.9 475.89) rotate(-45)"/>
  <rect class="cls-2" x="324.8" y="932.31" width="25.4" height="25.4" transform="translate(-569.37 515.44) rotate(-45)"/>
  <rect class="cls-2" x="324.8" y="392.3" width="25.4" height="25.4" transform="translate(-187.53 357.27) rotate(-45)"/>
  <rect class="cls-2" x="324.8" y="257.3" width="25.4" height="25.4" transform="translate(-92.07 317.73) rotate(-45)"/>
  <rect class="cls-2" x="324.8" y="122.3" width="25.4" height="25.4" transform="translate(3.39 278.19) rotate(-45)"/>
  <rect class="cls-2" x="459.8" y="527.3" width="25.4" height="25.4" transform="translate(-243.44 492.27) rotate(-45)"/>
  <rect class="cls-2" x="459.8" y="662.3" width="25.4" height="25.4" transform="translate(-338.9 531.81) rotate(-45)"/>
  <rect class="cls-2" x="459.8" y="797.31" width="25.4" height="25.4" transform="translate(-434.37 571.36) rotate(-45)"/>
  <rect class="cls-2" x="459.8" y="932.31" width="25.4" height="25.4" transform="translate(-529.83 610.9) rotate(-45)"/>
  <rect class="cls-2" x="459.8" y="392.3" width="25.4" height="25.4" transform="translate(-147.99 452.73) rotate(-45)"/>
  <rect class="cls-2" x="459.8" y="257.3" width="25.4" height="25.4" transform="translate(-52.53 413.19) rotate(-45)"/>
  <rect class="cls-2" x="459.8" y="122.3" width="25.4" height="25.4" transform="translate(42.93 373.65) rotate(-45)"/>
  <rect class="cls-2" x="594.8" y="527.3" width="25.4" height="25.4" transform="translate(-203.9 587.73) rotate(-45)"/>
  <rect class="cls-2" x="594.8" y="662.31" width="25.4" height="25.4" transform="translate(-299.37 627.27) rotate(-45)"/>
  <rect class="cls-2" x="594.8" y="797.31" width="25.4" height="25.4" transform="translate(-394.83 666.82) rotate(-45)"/>
  <rect class="cls-2" x="594.8" y="932.31" width="25.4" height="25.4" transform="translate(-490.29 706.36) rotate(-45)"/>
  <rect class="cls-2" x="594.8" y="392.3" width="25.4" height="25.4" transform="translate(-108.45 548.19) rotate(-45)"/>
  <rect class="cls-2" x="594.8" y="257.3" width="25.4" height="25.4" transform="translate(-12.99 508.65) rotate(-45)"/>
  <rect class="cls-2" x="594.8" y="122.3" width="25.4" height="25.4" transform="translate(82.47 469.11) rotate(-45)"/>
  <rect class="cls-2" x="729.8" y="527.31" width="25.4" height="25.4" transform="translate(-164.37 683.19) rotate(-45)"/>
  <rect class="cls-2" x="729.8" y="662.31" width="25.4" height="25.4" transform="translate(-259.83 722.73) rotate(-45)"/>
  <rect class="cls-2" x="729.8" y="797.31" width="25.4" height="25.4" transform="translate(-355.29 762.27) rotate(-45)"/>
  <rect class="cls-2" x="729.8" y="932.31" width="25.4" height="25.4" transform="translate(-450.75 801.81) rotate(-45)"/>
  <rect class="cls-2" x="729.8" y="392.3" width="25.4" height="25.4" transform="translate(-68.9 643.65) rotate(-45)"/>
  <rect class="cls-2" x="729.8" y="257.3" width="25.4" height="25.4" transform="translate(26.55 604.11) rotate(-45)"/>
  <rect class="cls-2" x="729.8" y="122.3" width="25.4" height="25.4" transform="translate(122.01 564.57) rotate(-45)"/>
  <rect class="cls-2" x="864.8" y="527.31" width="25.4" height="25.4" transform="translate(-124.83 778.65) rotate(-45)"/>
  <rect class="cls-2" x="864.8" y="662.31" width="25.4" height="25.4" transform="translate(-220.29 818.19) rotate(-45)"/>
  <rect class="cls-2" x="864.8" y="797.31" width="25.4" height="25.4" transform="translate(-315.75 857.73) rotate(-45)"/>
  <rect class="cls-2" x="864.8" y="932.31" width="25.4" height="25.4" transform="translate(-411.21 897.27) rotate(-45)"/>
  <rect class="cls-2" x="864.8" y="392.31" width="25.4" height="25.4" transform="translate(-29.37 739.11) rotate(-45)"/>
  <rect class="cls-2" x="864.8" y="257.3" width="25.4" height="25.4" transform="translate(66.1 699.57) rotate(-45)"/>
  <rect class="cls-2" x="864.8" y="122.3" width="25.4" height="25.4" transform="translate(161.55 660.03) rotate(-45)"/>
  <rect class="cls-2" x="999.8" y="527.31" width="25.4" height="25.4" transform="translate(-85.29 874.11) rotate(-45)"/>
  <rect class="cls-2" x="999.8" y="662.31" width="25.4" height="25.4" transform="translate(-180.75 913.65) rotate(-45)"/>
  <rect class="cls-2" x="999.8" y="797.31" width="25.4" height="25.4" transform="translate(-276.21 953.19) rotate(-45)"/>
  <rect class="cls-2" x="999.8" y="932.31" width="25.4" height="25.4" transform="translate(-371.66 992.73) rotate(-45)"/>
  <rect class="cls-2" x="999.8" y="392.31" width="25.4" height="25.4" transform="translate(10.17 834.57) rotate(-45)"/>
  <rect class="cls-2" x="999.8" y="257.31" width="25.4" height="25.4" transform="translate(105.63 795.03) rotate(-45)"/>
  <rect class="cls-2" x="999.8" y="122.3" width="25.4" height="25.4" transform="translate(201.1 755.48) rotate(-45)"/>
  <polygon class="cls-2" points="85.46 0 67.5 17.96 49.54 0 85.46 0"/>
  <polygon class="cls-2" points="220.46 0 202.5 17.96 184.54 0 220.46 0"/>
  <polygon class="cls-2" points="355.46 0 337.5 17.96 319.54 0 355.46 0"/>
  <polygon class="cls-2" points="490.46 0 472.5 17.96 454.54 0 490.46 0"/>
  <polygon class="cls-2" points="625.46 0 607.5 17.96 589.54 0 625.46 0"/>
  <polygon class="cls-2" points="760.46 0 742.5 17.96 724.54 0 760.46 0"/>
  <polygon class="cls-2" points="895.46 0 877.5 17.96 859.54 0 895.46 0"/>
  <polygon class="cls-2" points="1030.46 0 1012.5 17.96 994.54 0 1030.46 0"/>
  <polygon class="cls-2" points="67.5 1062.05 85.46 1080.01 49.54 1080.01 67.5 1062.05"/>
  <polygon class="cls-2" points="202.5 1062.04 220.46 1080.01 184.54 1080.01 202.5 1062.04"/>
  <polygon class="cls-2" points="337.5 1062.04 355.46 1080 319.54 1080 337.5 1062.04"/>
  <polygon class="cls-2" points="472.5 1062.04 490.46 1080 454.54 1080 472.5 1062.04"/>
  <polygon class="cls-2" points="607.5 1062.04 625.46 1080 589.54 1080 607.5 1062.04"/>
  <polygon class="cls-2" points="742.5 1062.04 760.46 1080 724.54 1080 742.5 1062.04"/>
  <polygon class="cls-2" points="877.5 1062.04 895.46 1080 859.54 1080 877.5 1062.04"/>
  <polygon class="cls-2" points="1012.5 1062.04 1030.46 1080 994.54 1080 1012.5 1062.04"/>
  <rect class="cls-2" x="932.3" y="459.81" width="25.4" height="25.4" transform="translate(-57.33 806.61) rotate(-45)"/>
  <rect class="cls-2" x="932.3" y="594.81" width="25.4" height="25.4" transform="translate(-152.79 846.15) rotate(-45)"/>
  <rect class="cls-2" x="932.3" y="729.81" width="25.4" height="25.4" transform="translate(-248.25 885.69) rotate(-45)"/>
  <rect class="cls-2" x="932.3" y="864.81" width="25.4" height="25.4" transform="translate(-343.71 925.23) rotate(-45)"/>
  <rect class="cls-2" x="932.3" y="324.81" width="25.4" height="25.4" transform="translate(38.13 767.07) rotate(-45)"/>
  <rect class="cls-2" x="932.3" y="189.8" width="25.4" height="25.4" transform="translate(133.6 727.53) rotate(-45)"/>
  <rect class="cls-2" x="932.3" y="54.8" width="25.4" height="25.4" transform="translate(229.05 687.98) rotate(-45)"/>
  <rect class="cls-2" x="797.3" y="459.81" width="25.4" height="25.4" transform="translate(-96.87 711.15) rotate(-45)"/>
  <rect class="cls-2" x="797.3" y="594.81" width="25.4" height="25.4" transform="translate(-192.33 750.69) rotate(-45)"/>
  <rect class="cls-2" x="797.3" y="729.81" width="25.4" height="25.4" transform="translate(-287.79 790.23) rotate(-45)"/>
  <rect class="cls-2" x="797.3" y="864.81" width="25.4" height="25.4" transform="translate(-383.25 829.77) rotate(-45)"/>
  <rect class="cls-2" x="797.3" y="324.8" width="25.4" height="25.4" transform="translate(-1.4 671.61) rotate(-45)"/>
  <rect class="cls-2" x="797.3" y="189.8" width="25.4" height="25.4" transform="translate(94.05 632.07) rotate(-45)"/>
  <rect class="cls-2" x="797.3" y="54.8" width="25.4" height="25.4" transform="translate(189.51 592.53) rotate(-45)"/>
  <rect class="cls-2" x="662.3" y="459.81" width="25.4" height="25.4" transform="translate(-136.41 615.69) rotate(-45)"/>
  <rect class="cls-2" x="662.3" y="594.81" width="25.4" height="25.4" transform="translate(-231.87 655.23) rotate(-45)"/>
  <rect class="cls-2" x="662.3" y="729.81" width="25.4" height="25.4" transform="translate(-327.33 694.77) rotate(-45)"/>
  <rect class="cls-2" x="662.3" y="864.81" width="25.4" height="25.4" transform="translate(-422.79 734.32) rotate(-45)"/>
  <rect class="cls-2" x="662.3" y="324.8" width="25.4" height="25.4" transform="translate(-40.95 576.15) rotate(-45)"/>
  <rect class="cls-2" x="662.3" y="189.8" width="25.4" height="25.4" transform="translate(54.51 536.61) rotate(-45)"/>
  <rect class="cls-2" x="662.3" y="54.8" width="25.4" height="25.4" transform="translate(149.97 497.07) rotate(-45)"/>
  <rect class="cls-2" x="527.3" y="459.8" width="25.4" height="25.4" transform="translate(-175.94 520.23) rotate(-45)"/>
  <rect class="cls-2" x="527.3" y="594.81" width="25.4" height="25.4" transform="translate(-271.41 559.77) rotate(-45)"/>
  <rect class="cls-2" x="527.3" y="729.81" width="25.4" height="25.4" transform="translate(-366.87 599.32) rotate(-45)"/>
  <rect class="cls-2" x="527.3" y="864.81" width="25.4" height="25.4" transform="translate(-462.33 638.86) rotate(-45)"/>
  <rect class="cls-2" x="527.3" y="324.8" width="25.4" height="25.4" transform="translate(-80.49 480.69) rotate(-45)"/>
  <rect class="cls-2" x="527.3" y="189.8" width="25.4" height="25.4" transform="translate(14.97 441.15) rotate(-45)"/>
  <rect class="cls-2" x="527.3" y="54.8" width="25.4" height="25.4" transform="translate(110.43 401.61) rotate(-45)"/>
  <rect class="cls-2" x="392.3" y="459.8" width="25.4" height="25.4" transform="translate(-215.49 424.77) rotate(-45)"/>
  <rect class="cls-2" x="392.3" y="594.8" width="25.4" height="25.4" transform="translate(-310.94 464.31) rotate(-45)"/>
  <rect class="cls-2" x="392.3" y="729.81" width="25.4" height="25.4" transform="translate(-406.41 503.86) rotate(-45)"/>
  <rect class="cls-2" x="392.3" y="864.81" width="25.4" height="25.4" transform="translate(-501.87 543.4) rotate(-45)"/>
  <rect class="cls-2" x="392.3" y="324.8" width="25.4" height="25.4" transform="translate(-120.03 385.23) rotate(-45)"/>
  <rect class="cls-2" x="392.3" y="189.8" width="25.4" height="25.4" transform="translate(-24.57 345.69) rotate(-45)"/>
  <rect class="cls-2" x="392.3" y="54.8" width="25.4" height="25.4" transform="translate(70.89 306.15) rotate(-45)"/>
  <rect class="cls-2" x="257.3" y="459.8" width="25.4" height="25.4" transform="translate(-255.03 329.31) rotate(-45)"/>
  <rect class="cls-2" x="257.3" y="594.8" width="25.4" height="25.4" transform="translate(-350.49 368.85) rotate(-45)"/>
  <rect class="cls-2" x="257.3" y="729.8" width="25.4" height="25.4" transform="translate(-445.94 408.39) rotate(-45)"/>
  <rect class="cls-2" x="257.3" y="864.81" width="25.4" height="25.4" transform="translate(-541.41 447.94) rotate(-45)"/>
  <rect class="cls-2" x="257.3" y="324.8" width="25.4" height="25.4" transform="translate(-159.57 289.77) rotate(-45)"/>
  <rect class="cls-2" x="257.3" y="189.8" width="25.4" height="25.4" transform="translate(-64.11 250.23) rotate(-45)"/>
  <rect class="cls-2" x="257.3" y="54.8" width="25.4" height="25.4" transform="translate(31.35 210.69) rotate(-45)"/>
  <rect class="cls-2" x="122.3" y="459.8" width="25.4" height="25.4" transform="translate(-294.57 233.85) rotate(-45)"/>
  <rect class="cls-2" x="122.3" y="594.8" width="25.4" height="25.4" transform="translate(-390.03 273.4) rotate(-45)"/>
  <rect class="cls-2" x="122.3" y="729.8" width="25.4" height="25.4" transform="translate(-485.49 312.94) rotate(-45)"/>
  <rect class="cls-2" x="122.31" y="864.8" width="25.4" height="25.4" transform="translate(-580.94 352.48) rotate(-45)"/>
  <rect class="cls-2" x="932.3" y="999.82" width="25.4" height="25.4" transform="translate(-439.18 964.78) rotate(-45)"/>
  <polygon class="cls-2" points="1080 454.55 1080 490.47 1062.04 472.51 1080 454.55"/>
  <polygon class="cls-2" points="1080 589.55 1080 625.47 1062.04 607.51 1080 589.55"/>
  <polygon class="cls-2" points="1080.01 724.55 1080.01 760.47 1062.04 742.51 1080.01 724.55"/>
  <polygon class="cls-2" points="1080.01 859.55 1080.01 895.47 1062.05 877.51 1080.01 859.55"/>
  <polygon class="cls-2" points="1080 319.55 1080 355.47 1062.04 337.51 1080 319.55"/>
  <polygon class="cls-2" points="1080 184.54 1080 220.46 1062.04 202.5 1080 184.54"/>
  <polygon class="cls-2" points="1080 49.54 1080 85.46 1062.04 67.5 1080 49.54"/>
  <polygon class="cls-2" points="1080.01 994.56 1080.01 1030.49 1062.05 1012.52 1080.01 994.56"/>
  <polygon class="cls-2" points="0 454.55 17.96 472.51 0 490.47 0 454.55"/>
  <polygon class="cls-2" points="0 589.55 17.96 607.51 0 625.47 0 589.55"/>
  <polygon class="cls-2" points="0 724.55 17.96 742.51 0 760.47 0 724.55"/>
  <polygon class="cls-2" points="0 859.55 17.96 877.51 0 895.47 0 859.55"/>
  <polygon class="cls-2" points="0 319.55 17.96 337.51 0 355.47 0 319.55"/>
  <polygon class="cls-2" points="0 184.54 17.96 202.5 0 220.46 0 184.54"/>
  <polygon class="cls-2" points="0 49.54 17.96 67.5 0 85.46 0 49.54"/>
  <polygon class="cls-2" points="0 994.56 17.96 1012.52 0 1030.49 0 994.56"/>
  <rect class="cls-2" x="797.3" y="999.83" width="25.4" height="25.4" transform="translate(-478.72 869.32) rotate(-45)"/>
  <rect class="cls-2" x="662.3" y="999.83" width="25.4" height="25.4" transform="translate(-518.26 773.86) rotate(-45)"/>
  <rect class="cls-2" x="527.3" y="999.83" width="25.4" height="25.4" transform="translate(-557.8 678.4) rotate(-45)"/>
  <rect class="cls-2" x="392.3" y="999.83" width="25.4" height="25.4" transform="translate(-597.34 582.94) rotate(-45)"/>
  <rect class="cls-2" x="257.3" y="999.83" width="25.4" height="25.4" transform="translate(-636.88 487.48) rotate(-45)"/>
  <rect class="cls-2" x="122.31" y="999.82" width="25.4" height="25.4" transform="translate(-676.42 392.02) rotate(-45)"/>
  <rect class="cls-2" x="122.3" y="324.8" width="25.4" height="25.4" transform="translate(-199.11 194.31) rotate(-45)"/>
  <rect class="cls-2" x="122.3" y="189.8" width="25.4" height="25.4" transform="translate(-103.65 154.77) rotate(-45)"/>
  <rect class="cls-2" x="122.3" y="54.8" width="25.4" height="25.4" transform="translate(-8.19 115.23) rotate(-45)"/>
  <g>
    <path class="cls-1" d="M69.27,744.27c-4.65,17.42-.15,36.77,13.52,50.44,13.66,13.66,33.02,18.17,50.44,13.52,4.65-17.42.15-36.77-13.52-50.44-13.66-13.66-33.02-18.17-50.44-13.52Z"/>
    <path class="cls-1" d="M133.23,676.77c-17.42-4.65-36.77-.15-50.44,13.52-13.66,13.66-18.17,33.02-13.52,50.44,17.42,4.65,36.77.15,50.44-13.52,13.66-13.66,18.17-33.02,13.52-50.44Z"/>
    <path class="cls-1" d="M65.73,740.73c4.65-17.42.15-36.77-13.52-50.44-13.66-13.66-33.02-18.17-50.44-13.52-4.65,17.42-.15,36.77,13.52,50.44,13.66,13.66,33.02,18.17,50.44,13.52Z"/>
    <path class="cls-1" d="M1.77,808.23c17.42,4.65,36.77.15,50.44-13.52,13.66-13.66,18.17-33.02,13.52-50.44-17.42-4.65-36.77-.15-50.44,13.52-13.66,13.66-18.17,33.02-13.52,50.44Z"/>
    <path class="cls-1" d="M204.27,744.27c-4.65,17.42-.15,36.77,13.52,50.44s33.02,18.17,50.44,13.52c4.65-17.42.15-36.77-13.52-50.44-13.66-13.66-33.02-18.17-50.44-13.52Z"/>
    <path class="cls-1" d="M268.23,676.77c-17.42-4.65-36.77-.15-50.44,13.52-13.66,13.66-18.17,33.02-13.52,50.44,17.42,4.65,36.77.15,50.44-13.52,13.66-13.66,18.17-33.02,13.52-50.44Z"/>
    <path class="cls-1" d="M200.73,740.73c4.65-17.42.15-36.77-13.52-50.44-13.66-13.66-33.02-18.17-50.44-13.52-4.65,17.42-.15,36.77,13.52,50.44,13.66,13.66,33.02,18.17,50.44,13.52Z"/>
    <path class="cls-1" d="M136.77,808.23c17.42,4.65,36.77.15,50.44-13.52,13.66-13.66,18.17-33.02,13.52-50.44-17.42-4.65-36.77-.15-50.44,13.52-13.66,13.66-18.17,33.02-13.52,50.44Z"/>
    <path class="cls-1" d="M69.27,609.27c-4.65,17.42-.15,36.77,13.52,50.44,13.66,13.66,33.02,18.17,50.44,13.52,4.65-17.42.15-36.77-13.52-50.44-13.66-13.66-33.02-18.17-50.44-13.52Z"/>
    <path class="cls-1" d="M133.23,541.77c-17.42-4.65-36.77-.15-50.44,13.52-13.66,13.66-18.17,33.02-13.52,50.44,17.42,4.65,36.77.15,50.44-13.52,13.66-13.66,18.17-33.02,13.52-50.44Z"/>
    <path class="cls-1" d="M65.73,605.73c4.65-17.42.15-36.77-13.52-50.44-13.66-13.66-33.02-18.17-50.44-13.52-4.65,17.42-.15,36.77,13.52,50.44,13.66,13.66,33.02,18.17,50.44,13.52Z"/>
    <path class="cls-1" d="M1.77,673.23c17.42,4.65,36.77.15,50.44-13.52,13.66-13.66,18.17-33.02,13.52-50.44-17.42-4.65-36.77-.15-50.44,13.52-13.66,13.66-18.17,33.02-13.52,50.44Z"/>
    <path class="cls-1" d="M204.27,609.27c-4.65,17.42-.15,36.77,13.52,50.44s33.02,18.17,50.44,13.52c4.65-17.42.15-36.77-13.52-50.44-13.66-13.66-33.02-18.17-50.44-13.52Z"/>
    <path class="cls-1" d="M268.23,541.77c-17.42-4.65-36.77-.15-50.44,13.52-13.66,13.66-18.17,33.02-13.52,50.44,17.42,4.65,36.77.15,50.44-13.52,13.66-13.66,18.17-33.02,13.52-50.44Z"/>
    <path class="cls-1" d="M200.73,605.73c4.65-17.42.15-36.77-13.52-50.44-13.66-13.66-33.02-18.17-50.44-13.52-4.65,17.42-.15,36.77,13.52,50.44,13.66,13.66,33.02,18.17,50.44,13.52Z"/>
    <path class="cls-1" d="M136.77,673.23c17.42,4.65,36.77.15,50.44-13.52,13.66-13.66,18.17-33.02,13.52-50.44-17.42-4.65-36.77-.15-50.44,13.52-13.66,13.66-18.17,33.02-13.52,50.44Z"/>
    <path class="cls-1" d="M339.27,744.27c-4.65,17.42-.15,36.77,13.52,50.44,13.66,13.66,33.02,18.17,50.44,13.52,4.65-17.42.15-36.77-13.52-50.44-13.66-13.66-33.02-18.17-50.44-13.52Z"/>
    <path class="cls-1" d="M403.23,676.77c-17.42-4.65-36.77-.15-50.44,13.52-13.66,13.66-18.17,33.02-13.52,50.44,17.42,4.65,36.77.15,50.44-13.52s18.17-33.02,13.52-50.44Z"/>
    <path class="cls-1" d="M335.73,740.73c4.65-17.42.15-36.77-13.52-50.44-13.66-13.66-33.02-18.17-50.44-13.52-4.65,17.42-.15,36.77,13.52,50.44,13.66,13.66,33.02,18.17,50.44,13.52Z"/>
    <path class="cls-1" d="M271.77,808.23c17.42,4.65,36.77.15,50.44-13.52,13.66-13.66,18.17-33.02,13.52-50.44-17.42-4.65-36.77-.15-50.44,13.52-13.66,13.66-18.17,33.02-13.52,50.44Z"/>
    <path class="cls-1" d="M474.27,744.27c-4.65,17.42-.15,36.77,13.52,50.44,13.66,13.66,33.02,18.17,50.44,13.52,4.65-17.42.15-36.77-13.52-50.44-13.66-13.66-33.02-18.17-50.44-13.52h0Z"/>
    <path class="cls-1" d="M538.23,676.77c-17.42-4.65-36.77-.15-50.44,13.52-13.66,13.66-18.17,33.02-13.52,50.44,17.42,4.65,36.77.15,50.44-13.52,13.66-13.66,18.17-33.02,13.52-50.44Z"/>
    <path class="cls-1" d="M470.73,740.73c4.65-17.42.15-36.77-13.52-50.44-13.66-13.66-33.02-18.17-50.44-13.52-4.65,17.42-.15,36.77,13.52,50.44,13.66,13.66,33.02,18.17,50.44,13.52Z"/>
    <path class="cls-1" d="M406.77,808.23c17.42,4.65,36.77.15,50.44-13.52,13.66-13.66,18.17-33.02,13.52-50.44-17.42-4.65-36.77-.15-50.44,13.52-13.66,13.66-18.17,33.02-13.52,50.44Z"/>
    <path class="cls-1" d="M339.27,609.27c-4.65,17.42-.15,36.77,13.52,50.44,13.66,13.66,33.02,18.17,50.44,13.52,4.65-17.42.15-36.77-13.52-50.44-13.66-13.66-33.02-18.17-50.44-13.52Z"/>
    <path class="cls-1" d="M403.23,541.77c-17.42-4.65-36.77-.15-50.44,13.52-13.66,13.66-18.17,33.02-13.52,50.44,17.42,4.65,36.77.15,50.44-13.52,13.66-13.66,18.17-33.02,13.52-50.44Z"/>
    <path class="cls-1" d="M335.73,605.73c4.65-17.42.15-36.77-13.52-50.44-13.66-13.66-33.02-18.17-50.44-13.52-4.65,17.42-.15,36.77,13.52,50.44,13.66,13.66,33.02,18.17,50.44,13.52Z"/>
    <path class="cls-1" d="M271.77,673.23c17.42,4.65,36.77.15,50.44-13.52,13.66-13.66,18.17-33.02,13.52-50.44-17.42-4.65-36.77-.15-50.44,13.52-13.66,13.66-18.17,33.02-13.52,50.44Z"/>
    <path class="cls-1" d="M474.27,609.27c-4.65,17.42-.15,36.77,13.52,50.44,13.66,13.66,33.02,18.17,50.44,13.52,4.65-17.42.15-36.77-13.52-50.44-13.66-13.66-33.02-18.17-50.44-13.52h0Z"/>
    <path class="cls-1" d="M538.23,541.77c-17.42-4.65-36.77-.15-50.44,13.52-13.66,13.66-18.17,33.02-13.52,50.44,17.42,4.65,36.77.15,50.44-13.52,13.66-13.66,18.17-33.02,13.52-50.44Z"/>
    <path class="cls-1" d="M470.73,605.73c4.65-17.42.15-36.77-13.52-50.44-13.66-13.66-33.02-18.17-50.44-13.52-4.65,17.42-.15,36.77,13.52,50.44,13.66,13.66,33.02,18.17,50.44,13.52Z"/>
    <path class="cls-1" d="M406.77,673.23c17.42,4.65,36.77.15,50.44-13.52,13.66-13.66,18.17-33.02,13.52-50.44-17.42-4.65-36.77-.15-50.44,13.52-13.66,13.66-18.17,33.02-13.52,50.44Z"/>
    <path class="cls-1" d="M69.27,1014.27c-4.65,17.42-.15,36.77,13.52,50.44,13.66,13.66,33.02,18.17,50.44,13.52,4.65-17.42.15-36.77-13.52-50.44-13.66-13.66-33.02-18.17-50.44-13.52Z"/>
    <path class="cls-1" d="M133.23,946.77c-17.42-4.65-36.77-.15-50.44,13.52-13.66,13.66-18.17,33.02-13.52,50.44,17.42,4.65,36.77.15,50.44-13.52,13.66-13.66,18.17-33.02,13.52-50.44Z"/>
    <path class="cls-1" d="M65.73,1010.73c4.65-17.42.15-36.77-13.52-50.44-13.66-13.66-33.02-18.17-50.44-13.52-4.65,17.42-.15,36.77,13.52,50.44,13.66,13.66,33.02,18.17,50.44,13.52Z"/>
    <path class="cls-1" d="M1.77,1078.23c17.42,4.65,36.77.15,50.44-13.52,13.66-13.66,18.17-33.02,13.52-50.44-17.42-4.65-36.77-.15-50.44,13.52-13.66,13.66-18.17,33.02-13.52,50.44h0Z"/>
    <path class="cls-1" d="M204.27,1014.27c-4.65,17.42-.15,36.77,13.52,50.44,13.66,13.66,33.02,18.17,50.44,13.52,4.65-17.42.15-36.77-13.52-50.44-13.66-13.66-33.02-18.17-50.44-13.52Z"/>
    <path class="cls-1" d="M268.23,946.77c-17.42-4.65-36.77-.15-50.44,13.52s-18.17,33.02-13.52,50.44c17.42,4.65,36.77.15,50.44-13.52,13.66-13.66,18.17-33.02,13.52-50.44Z"/>
    <path class="cls-1" d="M200.73,1010.73c4.65-17.42.15-36.77-13.52-50.44-13.66-13.66-33.02-18.17-50.44-13.52-4.65,17.42-.15,36.77,13.52,50.44,13.66,13.66,33.02,18.17,50.44,13.52Z"/>
    <path class="cls-1" d="M136.77,1078.23c17.42,4.65,36.77.15,50.44-13.52,13.66-13.66,18.17-33.02,13.52-50.44-17.42-4.65-36.77-.15-50.44,13.52-13.66,13.66-18.17,33.02-13.52,50.44h0Z"/>
    <path class="cls-1" d="M69.27,879.27c-4.65,17.42-.15,36.77,13.52,50.44,13.66,13.66,33.02,18.17,50.44,13.52,4.65-17.42.15-36.77-13.52-50.44-13.66-13.66-33.02-18.17-50.44-13.52Z"/>
    <path class="cls-1" d="M133.23,811.77c-17.42-4.65-36.77-.15-50.44,13.52-13.66,13.66-18.17,33.02-13.52,50.44,17.42,4.65,36.77.15,50.44-13.52,13.66-13.66,18.17-33.02,13.52-50.44Z"/>
    <path class="cls-1" d="M65.73,875.73c4.65-17.42.15-36.77-13.52-50.44-13.66-13.66-33.02-18.17-50.44-13.52-4.65,17.42-.15,36.77,13.52,50.44,13.66,13.66,33.02,18.17,50.44,13.52Z"/>
    <path class="cls-1" d="M1.77,943.23c17.42,4.65,36.77.15,50.44-13.52,13.66-13.66,18.17-33.02,13.52-50.44-17.42-4.65-36.77-.15-50.44,13.52-13.66,13.66-18.17,33.02-13.52,50.44Z"/>
    <path class="cls-1" d="M204.27,879.27c-4.65,17.42-.15,36.77,13.52,50.44,13.66,13.66,33.02,18.17,50.44,13.52,4.65-17.42.15-36.77-13.52-50.44-13.66-13.66-33.02-18.17-50.44-13.52Z"/>
    <path class="cls-1" d="M268.23,811.77c-17.42-4.65-36.77-.15-50.44,13.52-13.66,13.66-18.17,33.02-13.52,50.44,17.42,4.65,36.77.15,50.44-13.52,13.66-13.66,18.17-33.02,13.52-50.44Z"/>
    <path class="cls-1" d="M200.73,875.73c4.65-17.42.15-36.77-13.52-50.44-13.66-13.66-33.02-18.17-50.44-13.52-4.65,17.42-.15,36.77,13.52,50.44,13.66,13.66,33.02,18.17,50.44,13.52Z"/>
    <path class="cls-1" d="M136.77,943.23c17.42,4.65,36.77.15,50.44-13.52,13.66-13.66,18.17-33.02,13.52-50.44-17.42-4.65-36.77-.15-50.44,13.52-13.66,13.66-18.17,33.02-13.52,50.44Z"/>
    <path class="cls-1" d="M339.27,1014.27c-4.65,17.42-.15,36.77,13.52,50.44,13.66,13.66,33.02,18.17,50.44,13.52,4.65-17.42.15-36.77-13.52-50.44-13.66-13.66-33.02-18.17-50.44-13.52Z"/>
    <path class="cls-1" d="M403.23,946.77c-17.42-4.65-36.77-.15-50.44,13.52-13.66,13.66-18.17,33.02-13.52,50.44,17.42,4.65,36.77.15,50.44-13.52,13.66-13.66,18.17-33.02,13.52-50.44Z"/>
    <path class="cls-1" d="M335.73,1010.73c4.65-17.42.15-36.77-13.52-50.44-13.66-13.66-33.02-18.17-50.44-13.52-4.65,17.42-.15,36.77,13.52,50.44,13.66,13.66,33.02,18.17,50.44,13.52Z"/>
    <path class="cls-1" d="M271.77,1078.23c17.42,4.65,36.77.15,50.44-13.52,13.66-13.66,18.17-33.02,13.52-50.44-17.42-4.65-36.77-.15-50.44,13.52-13.66,13.66-18.17,33.02-13.52,50.44h0Z"/>
    <path class="cls-1" d="M474.27,1014.27c-4.65,17.42-.15,36.77,13.52,50.44,13.66,13.66,33.02,18.17,50.44,13.52,4.65-17.42.15-36.77-13.52-50.44-13.66-13.66-33.02-18.17-50.44-13.52h0Z"/>
    <path class="cls-1" d="M538.23,946.77c-17.42-4.65-36.77-.15-50.44,13.52-13.66,13.66-18.17,33.02-13.52,50.44,17.42,4.65,36.77.15,50.44-13.52,13.66-13.66,18.17-33.02,13.52-50.44Z"/>
    <path class="cls-1" d="M470.73,1010.73c4.65-17.42.15-36.77-13.52-50.44-13.66-13.66-33.02-18.17-50.44-13.52-4.65,17.42-.15,36.77,13.52,50.44,13.66,13.66,33.02,18.17,50.44,13.52Z"/>
    <path class="cls-1" d="M406.77,1078.23c17.42,4.65,36.77.15,50.44-13.52,13.66-13.66,18.17-33.02,13.52-50.44-17.42-4.65-36.77-.15-50.44,13.52-13.66,13.66-18.17,33.02-13.52,50.44h0Z"/>
    <path class="cls-1" d="M339.27,879.27c-4.65,17.42-.15,36.77,13.52,50.44,13.66,13.66,33.02,18.17,50.44,13.52,4.65-17.42.15-36.77-13.52-50.44-13.66-13.66-33.02-18.17-50.44-13.52Z"/>
    <path class="cls-1" d="M403.23,811.77c-17.42-4.65-36.77-.15-50.44,13.52-13.66,13.66-18.17,33.02-13.52,50.44,17.42,4.65,36.77.15,50.44-13.52,13.66-13.66,18.17-33.02,13.52-50.44Z"/>
    <path class="cls-1" d="M335.73,875.73c4.65-17.42.15-36.77-13.52-50.44-13.66-13.66-33.02-18.17-50.44-13.52-4.65,17.42-.15,36.77,13.52,50.44,13.66,13.66,33.02,18.17,50.44,13.52Z"/>
    <path class="cls-1" d="M271.77,943.23c17.42,4.65,36.77.15,50.44-13.52,13.66-13.66,18.17-33.02,13.52-50.44-17.42-4.65-36.77-.15-50.44,13.52-13.66,13.66-18.17,33.02-13.52,50.44Z"/>
    <path class="cls-1" d="M474.27,879.27c-4.65,17.42-.15,36.77,13.52,50.44,13.66,13.66,33.02,18.17,50.44,13.52,4.65-17.42.15-36.77-13.52-50.44-13.66-13.66-33.02-18.17-50.44-13.52h0Z"/>
    <path class="cls-1" d="M538.23,811.77c-17.42-4.65-36.77-.15-50.44,13.52-13.66,13.66-18.17,33.02-13.52,50.44,17.42,4.65,36.77.15,50.44-13.52,13.66-13.66,18.17-33.02,13.52-50.44Z"/>
    <path class="cls-1" d="M470.73,875.73c4.65-17.42.15-36.77-13.52-50.44-13.66-13.66-33.02-18.17-50.44-13.52-4.65,17.42-.15,36.77,13.52,50.44,13.66,13.66,33.02,18.17,50.44,13.52Z"/>
    <path class="cls-1" d="M406.77,943.23c17.42,4.65,36.77.15,50.44-13.52,13.66-13.66,18.17-33.02,13.52-50.44-17.42-4.65-36.77-.15-50.44,13.52-13.66,13.66-18.17,33.02-13.52,50.44Z"/>
    <path class="cls-1" d="M609.27,744.27c-4.65,17.42-.15,36.77,13.52,50.44s33.02,18.17,50.44,13.52c4.65-17.42.15-36.77-13.52-50.44-13.66-13.66-33.02-18.17-50.44-13.52Z"/>
    <path class="cls-1" d="M673.23,676.77c-17.42-4.65-36.77-.15-50.44,13.52-13.66,13.66-18.17,33.02-13.52,50.44,17.42,4.65,36.77.15,50.44-13.52,13.66-13.66,18.17-33.02,13.52-50.44Z"/>
    <path class="cls-1" d="M605.73,740.73c4.65-17.42.15-36.77-13.52-50.44-13.66-13.66-33.02-18.17-50.44-13.52-4.65,17.42-.15,36.77,13.52,50.44,13.66,13.66,33.02,18.17,50.44,13.52Z"/>
    <path class="cls-1" d="M541.77,808.23c17.42,4.65,36.77.15,50.44-13.52,13.66-13.66,18.17-33.02,13.52-50.44-17.42-4.65-36.77-.15-50.44,13.52-13.66,13.66-18.17,33.02-13.52,50.44Z"/>
    <path class="cls-1" d="M744.27,744.27c-4.65,17.42-.15,36.77,13.52,50.44,13.66,13.66,33.02,18.17,50.44,13.52,4.65-17.42.15-36.77-13.52-50.44-13.66-13.66-33.02-18.17-50.44-13.52Z"/>
    <path class="cls-1" d="M808.23,676.77c-17.42-4.65-36.77-.15-50.44,13.52-13.66,13.66-18.17,33.02-13.52,50.44,17.42,4.65,36.77.15,50.44-13.52s18.17-33.02,13.52-50.44Z"/>
    <path class="cls-1" d="M740.73,740.73c4.65-17.42.15-36.77-13.52-50.44s-33.02-18.17-50.44-13.52c-4.65,17.42-.15,36.77,13.52,50.44,13.66,13.66,33.02,18.17,50.44,13.52Z"/>
    <path class="cls-1" d="M676.77,808.23c17.42,4.65,36.77.15,50.44-13.52,13.66-13.66,18.17-33.02,13.52-50.44-17.42-4.65-36.77-.15-50.44,13.52-13.66,13.66-18.17,33.02-13.52,50.44Z"/>
    <path class="cls-1" d="M609.27,609.27c-4.65,17.42-.15,36.77,13.52,50.44s33.02,18.17,50.44,13.52c4.65-17.42.15-36.77-13.52-50.44-13.66-13.66-33.02-18.17-50.44-13.52Z"/>
    <path class="cls-1" d="M673.23,541.77c-17.42-4.65-36.77-.15-50.44,13.52-13.66,13.66-18.17,33.02-13.52,50.44,17.42,4.65,36.77.15,50.44-13.52,13.66-13.66,18.17-33.02,13.52-50.44Z"/>
    <path class="cls-1" d="M605.73,605.73c4.65-17.42.15-36.77-13.52-50.44-13.66-13.66-33.02-18.17-50.44-13.52-4.65,17.42-.15,36.77,13.52,50.44,13.66,13.66,33.02,18.17,50.44,13.52Z"/>
    <path class="cls-1" d="M541.77,673.23c17.42,4.65,36.77.15,50.44-13.52,13.66-13.66,18.17-33.02,13.52-50.44-17.42-4.65-36.77-.15-50.44,13.52-13.66,13.66-18.17,33.02-13.52,50.44Z"/>
    <path class="cls-1" d="M744.27,609.27c-4.65,17.42-.15,36.77,13.52,50.44,13.66,13.66,33.02,18.17,50.44,13.52,4.65-17.42.15-36.77-13.52-50.44-13.66-13.66-33.02-18.17-50.44-13.52Z"/>
    <path class="cls-1" d="M808.23,541.77c-17.42-4.65-36.77-.15-50.44,13.52-13.66,13.66-18.17,33.02-13.52,50.44,17.42,4.65,36.77.15,50.44-13.52,13.66-13.66,18.17-33.02,13.52-50.44Z"/>
    <path class="cls-1" d="M740.73,605.73c4.65-17.42.15-36.77-13.52-50.44-13.66-13.66-33.02-18.17-50.44-13.52-4.65,17.42-.15,36.77,13.52,50.44,13.66,13.66,33.02,18.17,50.44,13.52Z"/>
    <path class="cls-1" d="M676.77,673.23c17.42,4.65,36.77.15,50.44-13.52,13.66-13.66,18.17-33.02,13.52-50.44-17.42-4.65-36.77-.15-50.44,13.52-13.66,13.66-18.17,33.02-13.52,50.44Z"/>
    <path class="cls-1" d="M879.27,744.27c-4.65,17.42-.15,36.77,13.52,50.44,13.66,13.66,33.02,18.17,50.44,13.52,4.65-17.42.15-36.77-13.52-50.44-13.66-13.66-33.02-18.17-50.44-13.52Z"/>
    <path class="cls-1" d="M943.23,676.77c-17.42-4.65-36.77-.15-50.44,13.52s-18.17,33.02-13.52,50.44c17.42,4.65,36.77.15,50.44-13.52,13.66-13.66,18.17-33.02,13.52-50.44Z"/>
    <path class="cls-1" d="M875.73,740.73c4.65-17.42.15-36.77-13.52-50.44-13.66-13.66-33.02-18.17-50.44-13.52-4.65,17.42-.15,36.77,13.52,50.44,13.66,13.66,33.02,18.17,50.44,13.52Z"/>
    <path class="cls-1" d="M811.77,808.23c17.42,4.65,36.77.15,50.44-13.52,13.66-13.66,18.17-33.02,13.52-50.44-17.42-4.65-36.77-.15-50.44,13.52s-18.17,33.02-13.52,50.44Z"/>
    <path class="cls-1" d="M1014.27,744.27c-4.65,17.42-.15,36.77,13.52,50.44,13.66,13.66,33.02,18.17,50.44,13.52,4.65-17.42.15-36.77-13.52-50.44-13.66-13.66-33.02-18.17-50.44-13.52h0Z"/>
    <path class="cls-1" d="M1078.23,676.77c-17.42-4.65-36.77-.15-50.44,13.52-13.66,13.66-18.17,33.02-13.52,50.44,17.42,4.65,36.77.15,50.44-13.52,13.66-13.66,18.17-33.02,13.52-50.44Z"/>
    <path class="cls-1" d="M1010.73,740.73c4.65-17.42.15-36.77-13.52-50.44-13.66-13.66-33.02-18.17-50.44-13.52-4.65,17.42-.15,36.77,13.52,50.44,13.66,13.66,33.02,18.17,50.44,13.52Z"/>
    <path class="cls-1" d="M946.77,808.23c17.42,4.65,36.77.15,50.44-13.52s18.17-33.02,13.52-50.44c-17.42-4.65-36.77-.15-50.44,13.52-13.66,13.66-18.17,33.02-13.52,50.44Z"/>
    <path class="cls-1" d="M879.27,609.27c-4.65,17.42-.15,36.77,13.52,50.44,13.66,13.66,33.02,18.17,50.44,13.52,4.65-17.42.15-36.77-13.52-50.44-13.66-13.66-33.02-18.17-50.44-13.52Z"/>
    <path class="cls-1" d="M943.23,541.77c-17.42-4.65-36.77-.15-50.44,13.52-13.66,13.66-18.17,33.02-13.52,50.44,17.42,4.65,36.77.15,50.44-13.52,13.66-13.66,18.17-33.02,13.52-50.44Z"/>
    <path class="cls-1" d="M875.73,605.73c4.65-17.42.15-36.77-13.52-50.44s-33.02-18.17-50.44-13.52c-4.65,17.42-.15,36.77,13.52,50.44,13.66,13.66,33.02,18.17,50.44,13.52Z"/>
    <path class="cls-1" d="M811.77,673.23c17.42,4.65,36.77.15,50.44-13.52,13.66-13.66,18.17-33.02,13.52-50.44-17.42-4.65-36.77-.15-50.44,13.52-13.66,13.66-18.17,33.02-13.52,50.44Z"/>
    <path class="cls-1" d="M1014.27,609.27c-4.65,17.42-.15,36.77,13.52,50.44,13.66,13.66,33.02,18.17,50.44,13.52,4.65-17.42.15-36.77-13.52-50.44-13.66-13.66-33.02-18.17-50.44-13.52h0Z"/>
    <path class="cls-1" d="M1078.23,541.77c-17.42-4.65-36.77-.15-50.44,13.52-13.66,13.66-18.17,33.02-13.52,50.44,17.42,4.65,36.77.15,50.44-13.52,13.66-13.66,18.17-33.02,13.52-50.44Z"/>
    <path class="cls-1" d="M1010.73,605.73c4.65-17.42.15-36.77-13.52-50.44-13.66-13.66-33.02-18.17-50.44-13.52-4.65,17.42-.15,36.77,13.52,50.44,13.66,13.66,33.02,18.17,50.44,13.52Z"/>
    <path class="cls-1" d="M946.77,673.23c17.42,4.65,36.77.15,50.44-13.52,13.66-13.66,18.17-33.02,13.52-50.44-17.42-4.65-36.77-.15-50.44,13.52-13.66,13.66-18.17,33.02-13.52,50.44Z"/>
    <path class="cls-1" d="M609.27,1014.27c-4.65,17.42-.15,36.77,13.52,50.44,13.66,13.66,33.02,18.17,50.44,13.52,4.65-17.42.15-36.77-13.52-50.44-13.66-13.66-33.02-18.17-50.44-13.52Z"/>
    <path class="cls-1" d="M673.23,946.77c-17.42-4.65-36.77-.15-50.44,13.52-13.66,13.66-18.17,33.02-13.52,50.44,17.42,4.65,36.77.15,50.44-13.52,13.66-13.66,18.17-33.02,13.52-50.44Z"/>
    <path class="cls-1" d="M605.73,1010.73c4.65-17.42.15-36.77-13.52-50.44-13.66-13.66-33.02-18.17-50.44-13.52-4.65,17.42-.15,36.77,13.52,50.44,13.66,13.66,33.02,18.17,50.44,13.52Z"/>
    <path class="cls-1" d="M541.77,1078.23c17.42,4.65,36.77.15,50.44-13.52,13.66-13.66,18.17-33.02,13.52-50.44-17.42-4.65-36.77-.15-50.44,13.52-13.66,13.66-18.17,33.02-13.52,50.44h0Z"/>
    <path class="cls-1" d="M744.27,1014.27c-4.65,17.42-.15,36.77,13.52,50.44,13.66,13.66,33.02,18.17,50.44,13.52,4.65-17.42.15-36.77-13.52-50.44-13.66-13.66-33.02-18.17-50.44-13.52Z"/>
    <path class="cls-1" d="M808.23,946.77c-17.42-4.65-36.77-.15-50.44,13.52s-18.17,33.02-13.52,50.44c17.42,4.65,36.77.15,50.44-13.52,13.66-13.66,18.17-33.02,13.52-50.44Z"/>
    <path class="cls-1" d="M740.73,1010.73c4.65-17.42.15-36.77-13.52-50.44-13.66-13.66-33.02-18.17-50.44-13.52-4.65,17.42-.15,36.77,13.52,50.44s33.02,18.17,50.44,13.52Z"/>
    <path class="cls-1" d="M676.77,1078.23c17.42,4.65,36.77.15,50.44-13.52,13.66-13.66,18.17-33.02,13.52-50.44-17.42-4.65-36.77-.15-50.44,13.52-13.66,13.66-18.17,33.02-13.52,50.44h0Z"/>
    <path class="cls-1" d="M609.27,879.27c-4.65,17.42-.15,36.77,13.52,50.44,13.66,13.66,33.02,18.17,50.44,13.52,4.65-17.42.15-36.77-13.52-50.44-13.66-13.66-33.02-18.17-50.44-13.52Z"/>
    <path class="cls-1" d="M673.23,811.77c-17.42-4.65-36.77-.15-50.44,13.52-13.66,13.66-18.17,33.02-13.52,50.44,17.42,4.65,36.77.15,50.44-13.52,13.66-13.66,18.17-33.02,13.52-50.44Z"/>
    <path class="cls-1" d="M605.73,875.73c4.65-17.42.15-36.77-13.52-50.44-13.66-13.66-33.02-18.17-50.44-13.52-4.65,17.42-.15,36.77,13.52,50.44,13.66,13.66,33.02,18.17,50.44,13.52Z"/>
    <path class="cls-1" d="M541.77,943.23c17.42,4.65,36.77.15,50.44-13.52,13.66-13.66,18.17-33.02,13.52-50.44-17.42-4.65-36.77-.15-50.44,13.52-13.66,13.66-18.17,33.02-13.52,50.44Z"/>
    <path class="cls-1" d="M744.27,879.27c-4.65,17.42-.15,36.77,13.52,50.44,13.66,13.66,33.02,18.17,50.44,13.52,4.65-17.42.15-36.77-13.52-50.44-13.66-13.66-33.02-18.17-50.44-13.52Z"/>
    <path class="cls-1" d="M808.23,811.77c-17.42-4.65-36.77-.15-50.44,13.52-13.66,13.66-18.17,33.02-13.52,50.44,17.42,4.65,36.77.15,50.44-13.52,13.66-13.66,18.17-33.02,13.52-50.44Z"/>
    <path class="cls-1" d="M740.73,875.73c4.65-17.42.15-36.77-13.52-50.44-13.66-13.66-33.02-18.17-50.44-13.52-4.65,17.42-.15,36.77,13.52,50.44,13.66,13.66,33.02,18.17,50.44,13.52Z"/>
    <path class="cls-1" d="M676.77,943.23c17.42,4.65,36.77.15,50.44-13.52,13.66-13.66,18.17-33.02,13.52-50.44-17.42-4.65-36.77-.15-50.44,13.52-13.66,13.66-18.17,33.02-13.52,50.44Z"/>
    <path class="cls-1" d="M879.27,1014.27c-4.65,17.42-.15,36.77,13.52,50.44s33.02,18.17,50.44,13.52c4.65-17.42.15-36.77-13.52-50.44-13.66-13.66-33.02-18.17-50.44-13.52Z"/>
    <path class="cls-1" d="M943.23,946.77c-17.42-4.65-36.77-.15-50.44,13.52-13.66,13.66-18.17,33.02-13.52,50.44,17.42,4.65,36.77.15,50.44-13.52,13.66-13.66,18.17-33.02,13.52-50.44Z"/>
    <path class="cls-1" d="M875.73,1010.73c4.65-17.42.15-36.77-13.52-50.44-13.66-13.66-33.02-18.17-50.44-13.52-4.65,17.42-.15,36.77,13.52,50.44,13.66,13.66,33.02,18.17,50.44,13.52Z"/>
    <path class="cls-1" d="M811.77,1078.23c17.42,4.65,36.77.15,50.44-13.52,13.66-13.66,18.17-33.02,13.52-50.44-17.42-4.65-36.77-.15-50.44,13.52-13.66,13.66-18.17,33.02-13.52,50.44h0Z"/>
    <path class="cls-1" d="M1014.27,1014.27c-4.65,17.42-.15,36.77,13.52,50.44,13.66,13.66,33.02,18.17,50.44,13.52,4.65-17.42.15-36.77-13.52-50.44-13.66-13.66-33.02-18.17-50.44-13.52h0Z"/>
    <path class="cls-1" d="M1078.23,946.77c-17.42-4.65-36.77-.15-50.44,13.52-13.66,13.66-18.17,33.02-13.52,50.44,17.42,4.65,36.77.15,50.44-13.52,13.66-13.66,18.17-33.02,13.52-50.44Z"/>
    <path class="cls-1" d="M1010.73,1010.73c4.65-17.42.15-36.77-13.52-50.44-13.66-13.66-33.02-18.17-50.44-13.52-4.65,17.42-.15,36.77,13.52,50.44,13.66,13.66,33.02,18.17,50.44,13.52Z"/>
    <path class="cls-1" d="M946.77,1078.23c17.42,4.65,36.77.15,50.44-13.52s18.17-33.02,13.52-50.44c-17.42-4.65-36.77-.15-50.44,13.52-13.67,13.67-18.17,33.02-13.52,50.44h0Z"/>
    <path class="cls-1" d="M879.27,879.27c-4.65,17.42-.15,36.77,13.52,50.44s33.02,18.17,50.44,13.52c4.65-17.42.15-36.77-13.52-50.44-13.66-13.66-33.02-18.17-50.44-13.52Z"/>
    <path class="cls-1" d="M943.23,811.77c-17.42-4.65-36.77-.15-50.44,13.52s-18.17,33.02-13.52,50.44c17.42,4.65,36.77.15,50.44-13.52,13.66-13.66,18.17-33.02,13.52-50.44Z"/>
    <path class="cls-1" d="M875.73,875.73c4.65-17.42.15-36.77-13.52-50.44-13.66-13.66-33.02-18.17-50.44-13.52-4.65,17.42-.15,36.77,13.52,50.44,13.66,13.66,33.02,18.17,50.44,13.52Z"/>
    <path class="cls-1" d="M811.77,943.23c17.42,4.65,36.77.15,50.44-13.52,13.66-13.66,18.17-33.02,13.52-50.44-17.42-4.65-36.77-.15-50.44,13.52-13.66,13.66-18.17,33.02-13.52,50.44Z"/>
    <path class="cls-1" d="M1014.27,879.27c-4.65,17.42-.15,36.77,13.52,50.44,13.66,13.66,33.02,18.17,50.44,13.52,4.65-17.42.15-36.77-13.52-50.44-13.66-13.66-33.02-18.17-50.44-13.52h0Z"/>
    <path class="cls-1" d="M1078.23,811.77c-17.42-4.65-36.77-.15-50.44,13.52-13.66,13.66-18.17,33.02-13.52,50.44,17.42,4.65,36.77.15,50.44-13.52,13.66-13.66,18.17-33.02,13.52-50.44Z"/>
    <path class="cls-1" d="M1010.73,875.73c4.65-17.42.15-36.77-13.52-50.44-13.66-13.66-33.02-18.17-50.44-13.52-4.65,17.42-.15,36.77,13.52,50.44,13.66,13.66,33.02,18.17,50.44,13.52Z"/>
    <path class="cls-1" d="M946.77,943.23c17.42,4.65,36.77.15,50.44-13.52,13.66-13.66,18.17-33.02,13.52-50.44-17.42-4.65-36.77-.15-50.44,13.52-13.66,13.66-18.17,33.02-13.52,50.44Z"/>
    <path class="cls-1" d="M609.27,204.27c-4.65,17.42-.15,36.77,13.52,50.44,13.66,13.66,33.02,18.17,50.44,13.52,4.65-17.42.15-36.77-13.52-50.44-13.66-13.66-33.02-18.17-50.44-13.52Z"/>
    <path class="cls-1" d="M673.23,136.77c-17.42-4.65-36.77-.15-50.44,13.52s-18.17,33.02-13.52,50.44c17.42,4.65,36.77.15,50.44-13.52,13.66-13.66,18.17-33.02,13.52-50.44Z"/>
    <path class="cls-1" d="M605.73,200.73c4.65-17.42.15-36.77-13.52-50.44-13.66-13.66-33.02-18.17-50.44-13.52-4.65,17.42-.15,36.77,13.52,50.44s33.02,18.17,50.44,13.52Z"/>
    <path class="cls-1" d="M541.77,268.23c17.42,4.65,36.77.15,50.44-13.52s18.17-33.02,13.52-50.44c-17.42-4.65-36.77-.15-50.44,13.52-13.66,13.66-18.17,33.02-13.52,50.44Z"/>
    <path class="cls-1" d="M744.27,204.27c-4.65,17.42-.15,36.77,13.52,50.44,13.66,13.66,33.02,18.17,50.44,13.52,4.65-17.42.15-36.77-13.52-50.44-13.66-13.66-33.02-18.17-50.44-13.52Z"/>
    <path class="cls-1" d="M808.23,136.77c-17.42-4.65-36.77-.15-50.44,13.52-13.66,13.66-18.17,33.02-13.52,50.44,17.42,4.65,36.77.15,50.44-13.52,13.66-13.66,18.17-33.02,13.52-50.44Z"/>
    <path class="cls-1" d="M740.73,200.73c4.65-17.42.15-36.77-13.52-50.44-13.66-13.66-33.02-18.17-50.44-13.52-4.65,17.42-.15,36.77,13.52,50.44,13.66,13.66,33.02,18.17,50.44,13.52Z"/>
    <path class="cls-1" d="M676.77,268.23c17.42,4.65,36.77.15,50.44-13.52s18.17-33.02,13.52-50.44c-17.42-4.65-36.77-.15-50.44,13.52-13.66,13.66-18.17,33.02-13.52,50.44Z"/>
    <path class="cls-1" d="M609.27,69.27c-4.65,17.42-.15,36.77,13.52,50.44,13.66,13.66,33.02,18.17,50.44,13.52,4.65-17.42.15-36.77-13.52-50.44-13.66-13.66-33.02-18.17-50.44-13.52Z"/>
    <path class="cls-1" d="M673.23,1.77c-17.42-4.65-36.77-.15-50.44,13.52-13.66,13.66-18.17,33.02-13.52,50.44,17.42,4.65,36.77.15,50.44-13.52,13.66-13.66,18.17-33.02,13.52-50.44Z"/>
    <path class="cls-1" d="M605.73,65.73c4.65-17.42.15-36.77-13.52-50.44-13.66-13.66-33.02-18.17-50.44-13.52-4.65,17.42-.15,36.77,13.52,50.44,13.66,13.66,33.02,18.17,50.44,13.52Z"/>
    <path class="cls-1" d="M541.77,133.23c17.42,4.65,36.77.15,50.44-13.52,13.66-13.66,18.17-33.02,13.52-50.44-17.42-4.65-36.77-.15-50.44,13.52-13.66,13.66-18.17,33.02-13.52,50.44Z"/>
    <path class="cls-1" d="M744.27,69.27c-4.65,17.42-.15,36.77,13.52,50.44,13.66,13.66,33.02,18.17,50.44,13.52,4.65-17.42.15-36.77-13.52-50.44-13.66-13.66-33.02-18.17-50.44-13.52Z"/>
    <path class="cls-1" d="M808.23,1.77c-17.42-4.65-36.77-.15-50.44,13.52-13.66,13.66-18.17,33.02-13.52,50.44,17.42,4.65,36.77.15,50.44-13.52,13.66-13.66,18.17-33.02,13.52-50.44Z"/>
    <path class="cls-1" d="M740.73,65.73c4.65-17.42.15-36.77-13.52-50.44s-33.02-18.17-50.44-13.52c-4.65,17.42-.15,36.77,13.52,50.44,13.66,13.66,33.02,18.17,50.44,13.52Z"/>
    <path class="cls-1" d="M676.77,133.23c17.42,4.65,36.77.15,50.44-13.52,13.66-13.66,18.17-33.02,13.52-50.44-17.42-4.65-36.77-.15-50.44,13.52-13.66,13.66-18.17,33.02-13.52,50.44Z"/>
    <path class="cls-1" d="M879.27,204.27c-4.65,17.42-.15,36.77,13.52,50.44,13.66,13.66,33.02,18.17,50.44,13.52,4.65-17.42.15-36.77-13.52-50.44-13.66-13.66-33.02-18.17-50.44-13.52Z"/>
    <path class="cls-1" d="M943.23,136.77c-17.42-4.65-36.77-.15-50.44,13.52-13.66,13.66-18.17,33.02-13.52,50.44,17.42,4.65,36.77.15,50.44-13.52,13.66-13.66,18.17-33.02,13.52-50.44Z"/>
    <path class="cls-1" d="M875.73,200.73c4.65-17.42.15-36.77-13.52-50.44-13.66-13.66-33.02-18.17-50.44-13.52-4.65,17.42-.15,36.77,13.52,50.44,13.66,13.66,33.02,18.17,50.44,13.52Z"/>
    <path class="cls-1" d="M811.77,268.23c17.42,4.65,36.77.15,50.44-13.52s18.17-33.02,13.52-50.44c-17.42-4.65-36.77-.15-50.44,13.52s-18.17,33.02-13.52,50.44Z"/>
    <path class="cls-1" d="M1014.27,204.27c-4.65,17.42-.15,36.77,13.52,50.44,13.66,13.66,33.02,18.17,50.44,13.52,4.65-17.42.15-36.77-13.52-50.44-13.66-13.66-33.02-18.17-50.44-13.52h0Z"/>
    <path class="cls-1" d="M1078.23,136.77c-17.42-4.65-36.77-.15-50.44,13.52-13.66,13.66-18.17,33.02-13.52,50.44,17.42,4.65,36.77.15,50.44-13.52,13.66-13.66,18.17-33.02,13.52-50.44Z"/>
    <path class="cls-1" d="M1010.73,200.73c4.65-17.42.15-36.77-13.52-50.44-13.66-13.66-33.02-18.17-50.44-13.52-4.65,17.42-.15,36.77,13.52,50.44,13.66,13.66,33.02,18.17,50.44,13.52Z"/>
    <path class="cls-1" d="M946.77,268.23c17.42,4.65,36.77.15,50.44-13.52,13.66-13.66,18.17-33.02,13.52-50.44-17.42-4.65-36.77-.15-50.44,13.52-13.66,13.66-18.17,33.02-13.52,50.44Z"/>
    <path class="cls-1" d="M879.27,69.27c-4.65,17.42-.15,36.77,13.52,50.44,13.66,13.66,33.02,18.17,50.44,13.52,4.65-17.42.15-36.77-13.52-50.44-13.66-13.66-33.02-18.17-50.44-13.52Z"/>
    <path class="cls-1" d="M943.23,1.77c-17.42-4.65-36.77-.15-50.44,13.52-13.66,13.66-18.17,33.02-13.52,50.44,17.42,4.65,36.77.15,50.44-13.52,13.66-13.66,18.17-33.02,13.52-50.44Z"/>
    <path class="cls-1" d="M875.73,65.73c4.65-17.42.15-36.77-13.52-50.44-13.66-13.66-33.02-18.17-50.44-13.52-4.65,17.42-.15,36.77,13.52,50.44,13.66,13.66,33.02,18.17,50.44,13.52Z"/>
    <path class="cls-1" d="M811.77,133.23c17.42,4.65,36.77.15,50.44-13.52,13.66-13.66,18.17-33.02,13.52-50.44-17.42-4.65-36.77-.15-50.44,13.52-13.66,13.66-18.17,33.02-13.52,50.44Z"/>
    <path class="cls-1" d="M1014.27,69.27c-4.65,17.42-.15,36.77,13.52,50.44,13.66,13.66,33.02,18.17,50.44,13.52,4.65-17.42.15-36.77-13.52-50.44-13.66-13.66-33.02-18.17-50.44-13.52h0Z"/>
    <path class="cls-1" d="M1078.23,1.77c-17.42-4.65-36.77-.15-50.44,13.52-13.66,13.66-18.17,33.02-13.52,50.44,17.42,4.65,36.77.15,50.44-13.52,13.66-13.66,18.17-33.02,13.52-50.44Z"/>
    <path class="cls-1" d="M1010.73,65.73c4.65-17.42.15-36.77-13.52-50.44-13.66-13.66-33.02-18.17-50.44-13.52-4.65,17.42-.15,36.77,13.52,50.44,13.66,13.66,33.02,18.17,50.44,13.52Z"/>
    <path class="cls-1" d="M946.77,133.23c17.42,4.65,36.77.15,50.44-13.52,13.66-13.66,18.17-33.02,13.52-50.44-17.42-4.65-36.77-.15-50.44,13.52-13.66,13.66-18.17,33.02-13.52,50.44Z"/>
    <path class="cls-1" d="M609.27,474.27c-4.65,17.42-.15,36.77,13.52,50.44,13.66,13.66,33.02,18.17,50.44,13.52,4.65-17.42.15-36.77-13.52-50.44-13.66-13.66-33.02-18.17-50.44-13.52Z"/>
    <path class="cls-1" d="M673.23,406.77c-17.42-4.65-36.77-.15-50.44,13.52-13.66,13.66-18.17,33.02-13.52,50.44,17.42,4.65,36.77.15,50.44-13.52,13.66-13.66,18.17-33.02,13.52-50.44Z"/>
    <path class="cls-1" d="M605.73,470.73c4.65-17.42.15-36.77-13.52-50.44-13.66-13.66-33.02-18.17-50.44-13.52-4.65,17.42-.15,36.77,13.52,50.44,13.66,13.66,33.02,18.17,50.44,13.52Z"/>
    <path class="cls-1" d="M541.77,538.23c17.42,4.65,36.77.15,50.44-13.52,13.66-13.66,18.17-33.02,13.52-50.44-17.42-4.65-36.77-.15-50.44,13.52-13.66,13.66-18.17,33.02-13.52,50.44h0Z"/>
    <path class="cls-1" d="M744.27,474.27c-4.65,17.42-.15,36.77,13.52,50.44,13.66,13.66,33.02,18.17,50.44,13.52,4.65-17.42.15-36.77-13.52-50.44s-33.02-18.17-50.44-13.52Z"/>
    <path class="cls-1" d="M808.23,406.77c-17.42-4.65-36.77-.15-50.44,13.52-13.66,13.66-18.17,33.02-13.52,50.44,17.42,4.65,36.77.15,50.44-13.52,13.66-13.66,18.17-33.02,13.52-50.44Z"/>
    <path class="cls-1" d="M740.73,470.73c4.65-17.42.15-36.77-13.52-50.44-13.66-13.66-33.02-18.17-50.44-13.52-4.65,17.42-.15,36.77,13.52,50.44,13.66,13.66,33.02,18.17,50.44,13.52Z"/>
    <path class="cls-1" d="M676.77,538.23c17.42,4.65,36.77.15,50.44-13.52,13.66-13.66,18.17-33.02,13.52-50.44-17.42-4.65-36.77-.15-50.44,13.52-13.66,13.66-18.17,33.02-13.52,50.44h0Z"/>
    <path class="cls-1" d="M609.27,339.27c-4.65,17.42-.15,36.77,13.52,50.44,13.66,13.66,33.02,18.17,50.44,13.52,4.65-17.42.15-36.77-13.52-50.44-13.66-13.66-33.02-18.17-50.44-13.52Z"/>
    <path class="cls-1" d="M673.23,271.77c-17.42-4.65-36.77-.15-50.44,13.52-13.66,13.66-18.17,33.02-13.52,50.44,17.42,4.65,36.77.15,50.44-13.52s18.17-33.02,13.52-50.44Z"/>
    <path class="cls-1" d="M605.73,335.73c4.65-17.42.15-36.77-13.52-50.44-13.66-13.66-33.02-18.17-50.44-13.52-4.65,17.42-.15,36.77,13.52,50.44,13.66,13.66,33.02,18.17,50.44,13.52Z"/>
    <path class="cls-1" d="M541.77,403.23c17.42,4.65,36.77.15,50.44-13.52,13.66-13.66,18.17-33.02,13.52-50.44-17.42-4.65-36.77-.15-50.44,13.52-13.66,13.66-18.17,33.02-13.52,50.44Z"/>
    <path class="cls-1" d="M744.27,339.27c-4.65,17.42-.15,36.77,13.52,50.44,13.66,13.66,33.02,18.17,50.44,13.52,4.65-17.42.15-36.77-13.52-50.44-13.66-13.66-33.02-18.17-50.44-13.52Z"/>
    <path class="cls-1" d="M808.23,271.77c-17.42-4.65-36.77-.15-50.44,13.52-13.66,13.66-18.17,33.02-13.52,50.44,17.42,4.65,36.77.15,50.44-13.52,13.66-13.66,18.17-33.02,13.52-50.44Z"/>
    <path class="cls-1" d="M740.73,335.73c4.65-17.42.15-36.77-13.52-50.44-13.66-13.66-33.02-18.17-50.44-13.52-4.65,17.42-.15,36.77,13.52,50.44,13.66,13.66,33.02,18.17,50.44,13.52Z"/>
    <path class="cls-1" d="M676.77,403.23c17.42,4.65,36.77.15,50.44-13.52,13.66-13.66,18.17-33.02,13.52-50.44-17.42-4.65-36.77-.15-50.44,13.52-13.66,13.66-18.17,33.02-13.52,50.44Z"/>
    <path class="cls-1" d="M879.27,474.27c-4.65,17.42-.15,36.77,13.52,50.44,13.66,13.66,33.02,18.17,50.44,13.52,4.65-17.42.15-36.77-13.52-50.44-13.66-13.66-33.02-18.17-50.44-13.52Z"/>
    <path class="cls-1" d="M943.23,406.77c-17.42-4.65-36.77-.15-50.44,13.52-13.66,13.66-18.17,33.02-13.52,50.44,17.42,4.65,36.77.15,50.44-13.52,13.66-13.66,18.17-33.02,13.52-50.44Z"/>
    <path class="cls-1" d="M875.73,470.73c4.65-17.42.15-36.77-13.52-50.44-13.66-13.66-33.02-18.17-50.44-13.52-4.65,17.42-.15,36.77,13.52,50.44,13.66,13.66,33.02,18.17,50.44,13.52Z"/>
    <path class="cls-1" d="M811.77,538.23c17.42,4.65,36.77.15,50.44-13.52,13.66-13.66,18.17-33.02,13.52-50.44-17.42-4.65-36.77-.15-50.44,13.52-13.66,13.66-18.17,33.02-13.52,50.44h0Z"/>
    <path class="cls-1" d="M1014.27,474.27c-4.65,17.42-.15,36.77,13.52,50.44,13.66,13.66,33.02,18.17,50.44,13.52,4.65-17.42.15-36.77-13.52-50.44-13.66-13.66-33.02-18.17-50.44-13.52h0Z"/>
    <path class="cls-1" d="M1078.23,406.77c-17.42-4.65-36.77-.15-50.44,13.52-13.66,13.66-18.17,33.02-13.52,50.44,17.42,4.65,36.77.15,50.44-13.52,13.66-13.66,18.17-33.02,13.52-50.44Z"/>
    <path class="cls-1" d="M1010.73,470.73c4.65-17.42.15-36.77-13.52-50.44-13.66-13.66-33.02-18.17-50.44-13.52-4.65,17.42-.15,36.77,13.52,50.44,13.66,13.66,33.02,18.17,50.44,13.52Z"/>
    <path class="cls-1" d="M946.77,538.23c17.42,4.65,36.77.15,50.44-13.52,13.66-13.66,18.17-33.02,13.52-50.44-17.42-4.65-36.77-.15-50.44,13.52-13.66,13.66-18.17,33.02-13.52,50.44h0Z"/>
    <path class="cls-1" d="M879.27,339.27c-4.65,17.42-.15,36.77,13.52,50.44,13.66,13.66,33.02,18.17,50.44,13.52,4.65-17.42.15-36.77-13.52-50.44-13.66-13.66-33.02-18.17-50.44-13.52Z"/>
    <path class="cls-1" d="M943.23,271.77c-17.42-4.65-36.77-.15-50.44,13.52-13.66,13.66-18.17,33.02-13.52,50.44,17.42,4.65,36.77.15,50.44-13.52,13.66-13.66,18.17-33.02,13.52-50.44Z"/>
    <path class="cls-1" d="M875.73,335.73c4.65-17.42.15-36.77-13.52-50.44-13.66-13.66-33.02-18.17-50.44-13.52-4.65,17.42-.15,36.77,13.52,50.44s33.02,18.17,50.44,13.52Z"/>
    <path class="cls-1" d="M811.77,403.23c17.42,4.65,36.77.15,50.44-13.52,13.66-13.66,18.17-33.02,13.52-50.44-17.42-4.65-36.77-.15-50.44,13.52-13.66,13.66-18.17,33.02-13.52,50.44Z"/>
    <path class="cls-1" d="M1014.27,339.27c-4.65,17.42-.15,36.77,13.52,50.44,13.66,13.66,33.02,18.17,50.44,13.52,4.65-17.42.15-36.77-13.52-50.44-13.66-13.66-33.02-18.17-50.44-13.52h0Z"/>
    <path class="cls-1" d="M1078.23,271.77c-17.42-4.65-36.77-.15-50.44,13.52-13.66,13.66-18.17,33.02-13.52,50.44,17.42,4.65,36.77.15,50.44-13.52s18.17-33.02,13.52-50.44Z"/>
    <path class="cls-1" d="M1010.73,335.73c4.65-17.42.15-36.77-13.52-50.44-13.66-13.66-33.02-18.17-50.44-13.52-4.65,17.42-.15,36.77,13.52,50.44,13.66,13.66,33.02,18.17,50.44,13.52Z"/>
    <path class="cls-1" d="M946.77,403.23c17.42,4.65,36.77.15,50.44-13.52,13.66-13.66,18.17-33.02,13.52-50.44-17.42-4.65-36.77-.15-50.44,13.52-13.66,13.66-18.17,33.02-13.52,50.44Z"/>
    <path class="cls-1" d="M69.27,204.27c-4.65,17.42-.15,36.77,13.52,50.44,13.66,13.66,33.02,18.17,50.44,13.52,4.65-17.42.15-36.77-13.52-50.44s-33.02-18.17-50.44-13.52Z"/>
    <path class="cls-1" d="M133.23,136.77c-17.42-4.65-36.77-.15-50.44,13.52s-18.17,33.02-13.52,50.44c17.42,4.65,36.77.15,50.44-13.52s18.17-33.02,13.52-50.44Z"/>
    <path class="cls-1" d="M65.73,200.73c4.65-17.42.15-36.77-13.52-50.44-13.66-13.66-33.02-18.17-50.44-13.52-4.65,17.42-.15,36.77,13.52,50.44,13.66,13.66,33.02,18.17,50.44,13.52Z"/>
    <path class="cls-1" d="M1.77,268.23c17.42,4.65,36.77.15,50.44-13.52,13.66-13.66,18.17-33.02,13.52-50.44-17.42-4.65-36.77-.15-50.44,13.52-13.66,13.66-18.17,33.02-13.52,50.44Z"/>
    <path class="cls-1" d="M204.27,204.27c-4.65,17.42-.15,36.77,13.52,50.44,13.66,13.66,33.02,18.17,50.44,13.52,4.65-17.42.15-36.77-13.52-50.44s-33.02-18.17-50.44-13.52Z"/>
    <path class="cls-1" d="M268.23,136.77c-17.42-4.65-36.77-.15-50.44,13.52s-18.17,33.02-13.52,50.44c17.42,4.65,36.77.15,50.44-13.52,13.66-13.66,18.17-33.02,13.52-50.44Z"/>
    <path class="cls-1" d="M200.73,200.73c4.65-17.42.15-36.77-13.52-50.44s-33.02-18.17-50.44-13.52c-4.65,17.42-.15,36.77,13.52,50.44s33.02,18.17,50.44,13.52Z"/>
    <path class="cls-1" d="M136.77,268.23c17.42,4.65,36.77.15,50.44-13.52s18.17-33.02,13.52-50.44c-17.42-4.65-36.77-.15-50.44,13.52s-18.17,33.02-13.52,50.44Z"/>
    <path class="cls-1" d="M69.27,69.27c-4.65,17.42-.15,36.77,13.52,50.44s33.02,18.17,50.44,13.52c4.65-17.42.15-36.77-13.52-50.44s-33.02-18.17-50.44-13.52Z"/>
    <path class="cls-1" d="M133.23,1.77c-17.42-4.65-36.77-.15-50.44,13.52-13.66,13.66-18.17,33.02-13.52,50.44,17.42,4.65,36.77.15,50.44-13.52,13.66-13.66,18.17-33.02,13.52-50.44Z"/>
    <path class="cls-1" d="M65.73,65.73c4.65-17.42.15-36.77-13.52-50.44C38.54,1.63,19.19-2.88,1.77,1.77c-4.65,17.42-.15,36.77,13.52,50.44,13.67,13.67,33.02,18.17,50.44,13.52Z"/>
    <path class="cls-1" d="M1.77,133.23c17.42,4.65,36.77.15,50.44-13.52,13.66-13.66,18.17-33.02,13.52-50.44-17.42-4.65-36.77-.15-50.44,13.52C1.63,96.46-2.88,115.81,1.77,133.23Z"/>
    <path class="cls-1" d="M204.27,69.27c-4.65,17.42-.15,36.77,13.52,50.44s33.02,18.17,50.44,13.52c4.65-17.42.15-36.77-13.52-50.44s-33.02-18.17-50.44-13.52Z"/>
    <path class="cls-1" d="M268.23,1.77c-17.42-4.65-36.77-.15-50.44,13.52-13.66,13.66-18.17,33.02-13.52,50.44,17.42,4.65,36.77.15,50.44-13.52,13.66-13.66,18.17-33.02,13.52-50.44Z"/>
    <path class="cls-1" d="M200.73,65.73c4.65-17.42.15-36.77-13.52-50.44C173.54,1.63,154.19-2.88,136.77,1.77c-4.65,17.42-.15,36.77,13.52,50.44,13.66,13.66,33.02,18.17,50.44,13.52h0Z"/>
    <path class="cls-1" d="M136.77,133.23c17.42,4.65,36.77.15,50.44-13.52s18.17-33.02,13.52-50.44c-17.42-4.65-36.77-.15-50.44,13.52-13.66,13.66-18.17,33.02-13.52,50.44Z"/>
    <path class="cls-1" d="M339.27,204.27c-4.65,17.42-.15,36.77,13.52,50.44,13.66,13.66,33.02,18.17,50.44,13.52,4.65-17.42.15-36.77-13.52-50.44-13.66-13.66-33.02-18.17-50.44-13.52Z"/>
    <path class="cls-1" d="M403.23,136.77c-17.42-4.65-36.77-.15-50.44,13.52-13.66,13.66-18.17,33.02-13.52,50.44,17.42,4.65,36.77.15,50.44-13.52,13.66-13.66,18.17-33.02,13.52-50.44Z"/>
    <path class="cls-1" d="M335.73,200.73c4.65-17.42.15-36.77-13.52-50.44-13.66-13.66-33.02-18.17-50.44-13.52-4.65,17.42-.15,36.77,13.52,50.44,13.66,13.66,33.02,18.17,50.44,13.52Z"/>
    <path class="cls-1" d="M271.77,268.23c17.42,4.65,36.77.15,50.44-13.52,13.66-13.66,18.17-33.02,13.52-50.44-17.42-4.65-36.77-.15-50.44,13.52-13.66,13.66-18.17,33.02-13.52,50.44Z"/>
    <path class="cls-1" d="M474.27,204.27c-4.65,17.42-.15,36.77,13.52,50.44,13.66,13.66,33.02,18.17,50.44,13.52,4.65-17.42.15-36.77-13.52-50.44-13.66-13.66-33.02-18.17-50.44-13.52h0Z"/>
    <path class="cls-1" d="M538.23,136.77c-17.42-4.65-36.77-.15-50.44,13.52-13.66,13.66-18.17,33.02-13.52,50.44,17.42,4.65,36.77.15,50.44-13.52,13.66-13.66,18.17-33.02,13.52-50.44Z"/>
    <path class="cls-1" d="M470.73,200.73c4.65-17.42.15-36.77-13.52-50.44-13.66-13.66-33.02-18.17-50.44-13.52-4.65,17.42-.15,36.77,13.52,50.44,13.66,13.66,33.02,18.17,50.44,13.52Z"/>
    <path class="cls-1" d="M406.77,268.23c17.42,4.65,36.77.15,50.44-13.52s18.17-33.02,13.52-50.44c-17.42-4.65-36.77-.15-50.44,13.52-13.66,13.66-18.17,33.02-13.52,50.44Z"/>
    <path class="cls-1" d="M339.27,69.27c-4.65,17.42-.15,36.77,13.52,50.44,13.66,13.66,33.02,18.17,50.44,13.52,4.65-17.42.15-36.77-13.52-50.44-13.66-13.66-33.02-18.17-50.44-13.52Z"/>
    <path class="cls-1" d="M403.23,1.77c-17.42-4.65-36.77-.15-50.44,13.52-13.66,13.66-18.17,33.02-13.52,50.44,17.42,4.65,36.77.15,50.44-13.52,13.66-13.66,18.17-33.02,13.52-50.44Z"/>
    <path class="cls-1" d="M335.73,65.73c4.65-17.42.15-36.77-13.52-50.44-13.66-13.66-33.02-18.17-50.44-13.52-4.65,17.42-.15,36.77,13.52,50.44,13.66,13.66,33.02,18.17,50.44,13.52Z"/>
    <path class="cls-1" d="M271.77,133.23c17.42,4.65,36.77.15,50.44-13.52,13.66-13.66,18.17-33.02,13.52-50.44-17.42-4.65-36.77-.15-50.44,13.52s-18.17,33.02-13.52,50.44Z"/>
    <path class="cls-1" d="M474.27,69.27c-4.65,17.42-.15,36.77,13.52,50.44,13.66,13.66,33.02,18.17,50.44,13.52,4.65-17.42.15-36.77-13.52-50.44-13.66-13.66-33.02-18.17-50.44-13.52h0Z"/>
    <path class="cls-1" d="M538.23,1.77c-17.42-4.65-36.77-.15-50.44,13.52-13.66,13.66-18.17,33.02-13.52,50.44,17.42,4.65,36.77.15,50.44-13.52,13.66-13.66,18.17-33.02,13.52-50.44Z"/>
    <path class="cls-1" d="M470.73,65.73c4.65-17.42.15-36.77-13.52-50.44-13.66-13.66-33.02-18.17-50.44-13.52-4.65,17.42-.15,36.77,13.52,50.44,13.66,13.66,33.02,18.17,50.44,13.52Z"/>
    <path class="cls-1" d="M406.77,133.23c17.42,4.65,36.77.15,50.44-13.52,13.66-13.66,18.17-33.02,13.52-50.44-17.42-4.65-36.77-.15-50.44,13.52-13.66,13.66-18.17,33.02-13.52,50.44Z"/>
    <path class="cls-1" d="M69.27,474.27c-4.65,17.42-.15,36.77,13.52,50.44,13.66,13.66,33.02,18.17,50.44,13.52,4.65-17.42.15-36.77-13.52-50.44-13.66-13.66-33.02-18.17-50.44-13.52Z"/>
    <path class="cls-1" d="M133.23,406.77c-17.42-4.65-36.77-.15-50.44,13.52-13.66,13.66-18.17,33.02-13.52,50.44,17.42,4.65,36.77.15,50.44-13.52,13.66-13.66,18.17-33.02,13.52-50.44Z"/>
    <path class="cls-1" d="M65.73,470.73c4.65-17.42.15-36.77-13.52-50.44-13.66-13.66-33.02-18.17-50.44-13.52-4.65,17.42-.15,36.77,13.52,50.44,13.66,13.66,33.02,18.17,50.44,13.52Z"/>
    <path class="cls-1" d="M1.77,538.23c17.42,4.65,36.77.15,50.44-13.52,13.66-13.66,18.17-33.02,13.52-50.44-17.42-4.65-36.77-.15-50.44,13.52-13.66,13.66-18.17,33.02-13.52,50.44h0Z"/>
    <path class="cls-1" d="M204.27,474.27c-4.65,17.42-.15,36.77,13.52,50.44,13.66,13.66,33.02,18.17,50.44,13.52,4.65-17.42.15-36.77-13.52-50.44-13.66-13.66-33.02-18.17-50.44-13.52Z"/>
    <path class="cls-1" d="M268.23,406.77c-17.42-4.65-36.77-.15-50.44,13.52-13.66,13.66-18.17,33.02-13.52,50.44,17.42,4.65,36.77.15,50.44-13.52,13.66-13.66,18.17-33.02,13.52-50.44Z"/>
    <path class="cls-1" d="M200.73,470.73c4.65-17.42.15-36.77-13.52-50.44s-33.02-18.17-50.44-13.52c-4.65,17.42-.15,36.77,13.52,50.44s33.02,18.17,50.44,13.52Z"/>
    <path class="cls-1" d="M136.77,538.23c17.42,4.65,36.77.15,50.44-13.52,13.66-13.66,18.17-33.02,13.52-50.44-17.42-4.65-36.77-.15-50.44,13.52-13.66,13.66-18.17,33.02-13.52,50.44h0Z"/>
    <path class="cls-1" d="M69.27,339.27c-4.65,17.42-.15,36.77,13.52,50.44,13.66,13.66,33.02,18.17,50.44,13.52,4.65-17.42.15-36.77-13.52-50.44-13.66-13.66-33.02-18.17-50.44-13.52Z"/>
    <path class="cls-1" d="M133.23,271.77c-17.42-4.65-36.77-.15-50.44,13.52-13.66,13.66-18.17,33.02-13.52,50.44,17.42,4.65,36.77.15,50.44-13.52,13.66-13.66,18.17-33.02,13.52-50.44Z"/>
    <path class="cls-1" d="M65.73,335.73c4.65-17.42.15-36.77-13.52-50.44-13.66-13.66-33.02-18.17-50.44-13.52-4.65,17.42-.15,36.77,13.52,50.44,13.66,13.66,33.02,18.17,50.44,13.52Z"/>
    <path class="cls-1" d="M1.77,403.23c17.42,4.65,36.77.15,50.44-13.52,13.66-13.66,18.17-33.02,13.52-50.44-17.42-4.65-36.77-.15-50.44,13.52-13.66,13.66-18.17,33.02-13.52,50.44Z"/>
    <path class="cls-1" d="M204.27,339.27c-4.65,17.42-.15,36.77,13.52,50.44,13.66,13.66,33.02,18.17,50.44,13.52,4.65-17.42.15-36.77-13.52-50.44-13.66-13.66-33.02-18.17-50.44-13.52Z"/>
    <path class="cls-1" d="M268.23,271.77c-17.42-4.65-36.77-.15-50.44,13.52-13.66,13.66-18.17,33.02-13.52,50.44,17.42,4.65,36.77.15,50.44-13.52,13.66-13.66,18.17-33.02,13.52-50.44Z"/>
    <path class="cls-1" d="M200.73,335.73c4.65-17.42.15-36.77-13.52-50.44-13.66-13.66-33.02-18.17-50.44-13.52-4.65,17.42-.15,36.77,13.52,50.44,13.66,13.66,33.02,18.17,50.44,13.52Z"/>
    <path class="cls-1" d="M136.77,403.23c17.42,4.65,36.77.15,50.44-13.52,13.66-13.66,18.17-33.02,13.52-50.44-17.42-4.65-36.77-.15-50.44,13.52-13.66,13.66-18.17,33.02-13.52,50.44Z"/>
    <path class="cls-1" d="M339.27,474.27c-4.65,17.42-.15,36.77,13.52,50.44,13.66,13.66,33.02,18.17,50.44,13.52,4.65-17.42.15-36.77-13.52-50.44-13.66-13.66-33.02-18.17-50.44-13.52Z"/>
    <path class="cls-1" d="M403.23,406.77c-17.42-4.65-36.77-.15-50.44,13.52-13.66,13.66-18.17,33.02-13.52,50.44,17.42,4.65,36.77.15,50.44-13.52,13.66-13.66,18.17-33.02,13.52-50.44Z"/>
    <path class="cls-1" d="M335.73,470.73c4.65-17.42.15-36.77-13.52-50.44s-33.02-18.17-50.44-13.52c-4.65,17.42-.15,36.77,13.52,50.44,13.66,13.66,33.02,18.17,50.44,13.52Z"/>
    <path class="cls-1" d="M271.77,538.23c17.42,4.65,36.77.15,50.44-13.52,13.66-13.66,18.17-33.02,13.52-50.44-17.42-4.65-36.77-.15-50.44,13.52-13.66,13.66-18.17,33.02-13.52,50.44h0Z"/>
    <path class="cls-1" d="M474.27,474.27c-4.65,17.42-.15,36.77,13.52,50.44,13.66,13.66,33.02,18.17,50.44,13.52,4.65-17.42.15-36.77-13.52-50.44-13.66-13.66-33.02-18.17-50.44-13.52h0Z"/>
    <path class="cls-1" d="M538.23,406.77c-17.42-4.65-36.77-.15-50.44,13.52-13.66,13.66-18.17,33.02-13.52,50.44,17.42,4.65,36.77.15,50.44-13.52,13.66-13.66,18.17-33.02,13.52-50.44Z"/>
    <path class="cls-1" d="M470.73,470.73c4.65-17.42.15-36.77-13.52-50.44-13.66-13.66-33.02-18.17-50.44-13.52-4.65,17.42-.15,36.77,13.52,50.44,13.66,13.66,33.02,18.17,50.44,13.52Z"/>
    <path class="cls-1" d="M406.77,538.23c17.42,4.65,36.77.15,50.44-13.52,13.66-13.66,18.17-33.02,13.52-50.44-17.42-4.65-36.77-.15-50.44,13.52s-18.17,33.02-13.52,50.44h0Z"/>
    <path class="cls-1" d="M339.27,339.27c-4.65,17.42-.15,36.77,13.52,50.44,13.66,13.66,33.02,18.17,50.44,13.52,4.65-17.42.15-36.77-13.52-50.44-13.66-13.66-33.02-18.17-50.44-13.52Z"/>
    <path class="cls-1" d="M403.23,271.77c-17.42-4.65-36.77-.15-50.44,13.52-13.66,13.66-18.17,33.02-13.52,50.44,17.42,4.65,36.77.15,50.44-13.52,13.66-13.66,18.17-33.02,13.52-50.44Z"/>
    <path class="cls-1" d="M335.73,335.73c4.65-17.42.15-36.77-13.52-50.44-13.66-13.66-33.02-18.17-50.44-13.52-4.65,17.42-.15,36.77,13.52,50.44,13.66,13.66,33.02,18.17,50.44,13.52Z"/>
    <path class="cls-1" d="M271.77,403.23c17.42,4.65,36.77.15,50.44-13.52,13.66-13.66,18.17-33.02,13.52-50.44-17.42-4.65-36.77-.15-50.44,13.52-13.66,13.66-18.17,33.02-13.52,50.44Z"/>
    <path class="cls-1" d="M474.27,339.27c-4.65,17.42-.15,36.77,13.52,50.44,13.66,13.66,33.02,18.17,50.44,13.52,4.65-17.42.15-36.77-13.52-50.44-13.66-13.66-33.02-18.17-50.44-13.52h0Z"/>
    <path class="cls-1" d="M538.23,271.77c-17.42-4.65-36.77-.15-50.44,13.52-13.66,13.66-18.17,33.02-13.52,50.44,17.42,4.65,36.77.15,50.44-13.52,13.66-13.66,18.17-33.02,13.52-50.44Z"/>
    <path class="cls-1" d="M470.73,335.73c4.65-17.42.15-36.77-13.52-50.44-13.66-13.66-33.02-18.17-50.44-13.52-4.65,17.42-.15,36.77,13.52,50.44,13.66,13.66,33.02,18.17,50.44,13.52Z"/>
    <path class="cls-1" d="M406.77,403.23c17.42,4.65,36.77.15,50.44-13.52,13.66-13.66,18.17-33.02,13.52-50.44-17.42-4.65-36.77-.15-50.44,13.52-13.66,13.66-18.17,33.02-13.52,50.44Z"/>
  </g>
</svg>